# xmcd
#
# Track frame offsets:
#	150
#	20017
#	39287
#	58157
#	80205
#	102155
#	116445
#	135652
#	153802
#	168109
#	183902
#	203732
#	217667
#	238987
#	256822
#
# Disc length: 3624 seconds
#
# Revision: 2
# Processed by: cddbd v1.5.2PL0 Copyright (c) Steve Scherf et al.
# Submitted via: audiograbber 1.83.01
#
DISCID=c00e260f
DTITLE=Various Artist - Sound Choice 8443
DYEAR=1900
DGENRE=70's and 80's
TTITLE0=Howard Jones - Things Can Only Get Better
TTITLE1=The Romantics - Talking In Your Sleep
TTITLE2=Amii Stewart - Knock On Wood
TTITLE3=Mr. Mister - Kyrie
TTITLE4=Pat Benatar - Invincible
TTITLE5=Tom Petty and the Heartbreakers - Don't Do Me Like That
TTITLE6=Yes - Owner Of A Lonely Heart
TTITLE7=Robert Palmer - I Didn't Mean To Turn You On
TTITLE8=Prince and the Revolutions - I Would Die 4 U
TTITLE9=King Floyd - Groove Me
TTITLE10=Tina Turner  - The Best
TTITLE11=The Fabolous thunderbirds - Wrap It Up
TTITLE12=Foreigner - Hot Blooded
TTITLE13=Cliff Richard - Devil Woman
TTITLE14=Dr. Hook - Sharing The Night Together
EXTD=
EXTT0=
EXTT1=
EXTT2=
EXTT3=
EXTT4=
EXTT5=
EXTT6=
EXTT7=
EXTT8=
EXTT9=
EXTT10=
EXTT11=
EXTT12=
EXTT13=
EXTT14=
PLAYORDER=
